HIERARCHY
ROOT Hips
{
	OFFSET 0.000000 83.214638 0.000000
	CHANNELS 6 Xposition Yposition Zposition Xrotation Yrotation Zrotation
	JOINT Pelvis
	{
		OFFSET 0.000000 0.000000 0.000000
		CHANNELS 3 Xrotation Yrotation Zrotation
		JOINT LeftUpLeg
		{
			OFFSET 8.479700 -4.795502 -0.379100
			CHANNELS 3 Xrotation Yrotation Zrotation
			JOINT LeftLeg
			{
				OFFSET 0.024144 -32.555107 0.112900
				CHANNELS 3 Xrotation Yrotation Zrotation
				JOINT LeftFoot
				{
					OFFSET -0.024144 -32.638630 -3.012600
					CHANNELS 3 Xrotation Yrotation Zrotation
					JOINT LeftToeBase
					{
						OFFSET 0.970200 -13.225400 11.864200
						CHANNELS 3 Xrotation Yrotation Zrotation
						End Site
						{
							OFFSET 0.000000 12.319262 0.000000
						}
					}
					JOINT LFootTongue
					{
						OFFSET 1.142400 -1.059800 6.665200
						CHANNELS 3 Xrotation Yrotation Zrotation
						End Site
						{
							OFFSET 0.000000 12.319262 0.000000
						}
					}
				}
				JOINT LeftPantLeg
				{
					OFFSET 0.918482 -16.533964 -2.284700
					CHANNELS 3 Xrotation Yrotation Zrotation
					End Site
					{
						OFFSET 0.350399 24.744368 0.000000
					}
				}
			}
		}
		JOINT RightUpLeg
		{
			OFFSET -8.479700 -4.795502 -0.379100
			CHANNELS 3 Xrotation Yrotation Zrotation
			JOINT RightLeg
			{
				OFFSET -0.023144 -32.555092 0.112900
				CHANNELS 3 Xrotation Yrotation Zrotation
				JOINT RightFoot
				{
					OFFSET 0.023144 -32.638641 -3.012700
					CHANNELS 3 Xrotation Yrotation Zrotation
					JOINT RightToeBase
					{
						OFFSET -0.970200 -13.225400 11.864200
						CHANNELS 3 Xrotation Yrotation Zrotation
						End Site
						{
							OFFSET 0.000000 12.319244 0.000000
						}
					}
					JOINT RFootTongue
					{
						OFFSET -1.142200 -1.059800 6.665200
						CHANNELS 3 Xrotation Yrotation Zrotation
						End Site
						{
							OFFSET 0.000000 12.319243 0.000000
						}
					}
				}
				JOINT RightPantLeg
				{
					OFFSET -0.919482 -16.533978 -2.284800
					CHANNELS 3 Xrotation Yrotation Zrotation
					End Site
					{
						OFFSET -0.350400 24.744419 0.000000
					}
				}
			}
		}
	}
	JOINT Spine
	{
		OFFSET 0.000000 7.722000 1.166200
		CHANNELS 3 Xrotation Yrotation Zrotation
		JOINT Spine1
		{
			OFFSET 0.000000 12.024101 0.248800
			CHANNELS 3 Xrotation Yrotation Zrotation
			JOINT Spine2
			{
				OFFSET 0.000000 11.502998 -0.491200
				CHANNELS 3 Xrotation Yrotation Zrotation
				JOINT Neck
				{
					OFFSET 0.000000 18.430702 -3.123100
					CHANNELS 3 Xrotation Yrotation Zrotation
					JOINT Head
					{
						OFFSET 0.000000 9.051102 1.034000
						CHANNELS 3 Xrotation Yrotation Zrotation
						JOINT HairB
						{
							OFFSET 0.208400 24.786102 24.822300
							CHANNELS 3 Xrotation Yrotation Zrotation
							End Site
							{
								OFFSET 0.000000 32.263779 0.000000
							}
						}
						JOINT HairA
						{
							OFFSET -7.081100 24.428299 23.196600
							CHANNELS 3 Xrotation Yrotation Zrotation
							End Site
							{
								OFFSET 0.000000 32.263779 0.000000
							}
						}
						JOINT Hat
						{
							OFFSET 16.728800 15.048294 -15.439601
							CHANNELS 3 Xrotation Yrotation Zrotation
							End Site
							{
								OFFSET 0.000000 32.263779 0.000000
							}
						}
					}
				}
				JOINT LeftShoulder
				{
					OFFSET 6.197800 13.665199 -4.064700
					CHANNELS 3 Xrotation Yrotation Zrotation
					JOINT LeftArm
					{
						OFFSET 7.778100 -0.187103 -1.709300
						CHANNELS 3 Xrotation Yrotation Zrotation
						JOINT LeftForeArm
						{
							OFFSET 22.049376 0.000000 0.000000
							CHANNELS 3 Xrotation Yrotation Zrotation
							JOINT LeftHand
							{
								OFFSET 23.009392 0.000000 0.000000
								CHANNELS 3 Xrotation Yrotation Zrotation
								JOINT LeftHandThumb1
								{
									OFFSET 3.507191 -2.063065 3.133727
									CHANNELS 3 Xrotation Yrotation Zrotation
									JOINT LeftHandThumb2
									{
										OFFSET 3.101337 -1.790558 1.790558
										CHANNELS 3 Xrotation Yrotation Zrotation
										JOINT LeftHandThumb3
										{
											OFFSET 3.058640 -1.765907 1.765906
											CHANNELS 3 Xrotation Yrotation Zrotation
											End Site
											{
												OFFSET -0.415260 3.926476 -0.049563
											}
										}
									}
								}
								JOINT LeftHandIndex1
								{
									OFFSET 11.334419 -0.901459 3.706815
									CHANNELS 3 Xrotation Yrotation Zrotation
									JOINT LeftHandIndex2
									{
										OFFSET 3.283112 0.000000 0.000000
										CHANNELS 3 Xrotation Yrotation Zrotation
										JOINT LeftHandIndex3
										{
											OFFSET 3.323853 0.000000 0.000000
											CHANNELS 3 Xrotation Yrotation Zrotation
											End Site
											{
												OFFSET -1.135597 3.097809 0.402452
											}
										}
									}
								}
								JOINT LeftHandMiddle1
								{
									OFFSET 11.335861 0.000000 0.000000
									CHANNELS 3 Xrotation Yrotation Zrotation
									JOINT LeftHandMiddle2
									{
										OFFSET 3.410492 0.000000 0.000000
										CHANNELS 3 Xrotation Yrotation Zrotation
										JOINT LeftHandMiddle3
										{
											OFFSET 3.312172 0.000000 0.000000
											CHANNELS 3 Xrotation Yrotation Zrotation
											End Site
											{
												OFFSET -1.150200 3.080154 0.400270
											}
										}
									}
								}
								JOINT LeftHandRing1
								{
									OFFSET 11.514786 -0.013176 -3.003090
									CHANNELS 3 Xrotation Yrotation Zrotation
									JOINT LeftHandRing2
									{
										OFFSET 3.053307 0.000000 0.000000
										CHANNELS 3 Xrotation Yrotation Zrotation
										JOINT LeftHandRing3
										{
											OFFSET 3.295807 0.000000 0.000000
											CHANNELS 3 Xrotation Yrotation Zrotation
											End Site
											{
												OFFSET -1.281006 3.013344 0.375733
											}
										}
									}
								}
								JOINT LeftHandPinky1
								{
									OFFSET 10.518692 -0.960396 -5.730441
									CHANNELS 3 Xrotation Yrotation Zrotation
									JOINT LeftHandPinky2
									{
										OFFSET 2.861649 0.000000 0.000000
										CHANNELS 3 Xrotation Yrotation Zrotation
										JOINT LeftHandPinky3
										{
											OFFSET 2.863380 0.000000 0.000000
											CHANNELS 3 Xrotation Yrotation Zrotation
											End Site
											{
												OFFSET -0.843597 2.711159 0.369971
											}
										}
									}
								}
							}
							JOINT LSleeve
							{
								OFFSET 6.676277 -0.344902 -1.011730
								CHANNELS 3 Xrotation Yrotation Zrotation
								End Site
								{
									OFFSET 0.000000 14.885353 0.000000
								}
							}
						}
					}
				}
				JOINT RightShoulder
				{
					OFFSET -6.197800 13.665199 -4.064700
					CHANNELS 3 Xrotation Yrotation Zrotation
					JOINT RightArm
					{
						OFFSET -7.778100 -0.187103 -1.709300
						CHANNELS 3 Xrotation Yrotation Zrotation
						JOINT RightForeArm
						{
							OFFSET -22.049376 0.000000 0.000000
							CHANNELS 3 Xrotation Yrotation Zrotation
							JOINT RightHand
							{
								OFFSET -23.009392 0.000000 0.000000
								CHANNELS 3 Xrotation Yrotation Zrotation
								JOINT RightHandThumb1
								{
									OFFSET -3.507191 -2.063065 3.133727
									CHANNELS 3 Xrotation Yrotation Zrotation
									JOINT RightHandThumb2
									{
										OFFSET -3.101337 -1.790558 1.790558
										CHANNELS 3 Xrotation Yrotation Zrotation
										JOINT RightHandThumb3
										{
											OFFSET -3.058640 -1.765907 1.765906
											CHANNELS 3 Xrotation Yrotation Zrotation
											End Site
											{
												OFFSET 0.415260 3.926476 -0.049563
											}
										}
									}
								}
								JOINT RightHandIndex1
								{
									OFFSET -11.334419 -0.901459 3.706815
									CHANNELS 3 Xrotation Yrotation Zrotation
									JOINT RightHandIndex2
									{
										OFFSET -3.283112 0.000000 0.000000
										CHANNELS 3 Xrotation Yrotation Zrotation
										JOINT RightHandIndex3
										{
											OFFSET -3.323853 0.000000 0.000000
											CHANNELS 3 Xrotation Yrotation Zrotation
											End Site
											{
												OFFSET 1.135597 3.097809 0.402452
											}
										}
									}
								}
								JOINT RightHandMiddle1
								{
									OFFSET -11.335861 0.000000 0.000000
									CHANNELS 3 Xrotation Yrotation Zrotation
									JOINT RightHandMiddle2
									{
										OFFSET -3.410492 0.000000 0.000000
										CHANNELS 3 Xrotation Yrotation Zrotation
										JOINT RightHandMiddle3
										{
											OFFSET -3.312172 0.000000 0.000000
											CHANNELS 3 Xrotation Yrotation Zrotation
											End Site
											{
												OFFSET 1.150200 3.080154 0.400270
											}
										}
									}
								}
								JOINT RightHandRing1
								{
									OFFSET -11.514786 -0.013176 -3.003090
									CHANNELS 3 Xrotation Yrotation Zrotation
									JOINT RightHandRing2
									{
										OFFSET -3.053307 0.000000 0.000000
										CHANNELS 3 Xrotation Yrotation Zrotation
										JOINT RightHandRing3
										{
											OFFSET -3.295807 0.000000 0.000000
											CHANNELS 3 Xrotation Yrotation Zrotation
											End Site
											{
												OFFSET 1.281006 3.013344 0.375733
											}
										}
									}
								}
								JOINT RightHandPinky1
								{
									OFFSET -10.518692 -0.960396 -5.730441
									CHANNELS 3 Xrotation Yrotation Zrotation
									JOINT RightHandPinky2
									{
										OFFSET -2.861649 0.000000 0.000000
										CHANNELS 3 Xrotation Yrotation Zrotation
										JOINT RightHandPinky3
										{
											OFFSET -2.863380 0.000000 0.000000
											CHANNELS 3 Xrotation Yrotation Zrotation
											End Site
											{
												OFFSET 0.843597 2.711159 0.369971
											}
										}
									}
								}
							}
							JOINT RSleeve
							{
								OFFSET -6.676277 -0.344902 -1.011730
								CHANNELS 3 Xrotation Yrotation Zrotation
								End Site
								{
									OFFSET 0.000000 14.885353 0.000000
								}
							}
						}
					}
				}
				JOINT Backpack
				{
					OFFSET 0.000000 -2.471497 36.677502
					CHANNELS 3 Xrotation Yrotation Zrotation
					End Site
					{
						OFFSET 0.000000 20.427315 0.000000
					}
				}
				JOINT Hood
				{
					OFFSET 0.000000 18.754097 -10.431000
					CHANNELS 3 Xrotation Yrotation Zrotation
					JOINT Hood1
					{
						OFFSET 0.000000 -5.011002 -7.685901
						CHANNELS 3 Xrotation Yrotation Zrotation
						End Site
						{
							OFFSET 0.000000 9.175140 0.000000
						}
					}
				}
				JOINT LHoodieString
				{
					OFFSET 5.250500 16.397697 3.089900
					CHANNELS 3 Xrotation Yrotation Zrotation
					JOINT LHoodieString1
					{
						OFFSET 0.257700 -6.364304 3.694600
						CHANNELS 3 Xrotation Yrotation Zrotation
						JOINT LHoodieString2
						{
							OFFSET 0.000000 -9.643799 2.679100
							CHANNELS 3 Xrotation Yrotation Zrotation
							End Site
							{
								OFFSET 0.000000 10.009018 0.000000
							}
						}
					}
				}
				JOINT RHoodieString
				{
					OFFSET -5.250500 16.397697 3.089900
					CHANNELS 3 Xrotation Yrotation Zrotation
					JOINT RHoodieString1
					{
						OFFSET -0.257700 -6.364304 3.694600
						CHANNELS 3 Xrotation Yrotation Zrotation
						JOINT RHoodieString2
						{
							OFFSET 0.000000 -9.643799 2.679100
							CHANNELS 3 Xrotation Yrotation Zrotation
							End Site
							{
								OFFSET 0.000000 10.009018 0.000000
							}
						}
					}
				}
			}
			JOINT LBackpack_Strap
			{
				OFFSET 15.223200 -7.719803 -6.610900
				CHANNELS 3 Xrotation Yrotation Zrotation
				End Site
				{
					OFFSET 0.000000 16.040596 0.000000
				}
			}
			JOINT RBackpack_Strap
			{
				OFFSET -15.223000 -7.719803 -6.610900
				CHANNELS 3 Xrotation Yrotation Zrotation
				End Site
				{
					OFFSET 0.000000 16.040596 0.000000
				}
			}
		}
	}
	JOINT BoyFacialAnim_Joint
	{
		OFFSET 1.000000 -82.208099 -1.550900
		CHANNELS 3 Xrotation Yrotation Zrotation
		End Site
		{
			OFFSET 0.000000 30.012791 0.000000
		}
	}
}
MOTION
Frames: 4
Frame Time: 0.033333
-3.665009 80.539932 -0.616763 -8.966850 0.045161 -3.844687 0.000000 0.000000 0.000000 -12.221156 17.555951 19.727806 26.510570 1.782297 0.271076 -6.624936 2.900515 -9.209025 0.000000 0.000000 -0.000000 0.000000 0.000000 -0.000000 -0.000000 0.000001 -0.000000 -3.830084 9.776957 4.709654 24.251401 -8.757791 5.885244 -13.316229 -27.274907 -2.934902 0.000000 -0.000000 0.000000 0.000000 -0.000000 0.000000 0.000000 -0.000000 0.000000 5.809304 1.253579 10.558059 0.236030 0.144357 -1.836791 0.240603 0.116872 -1.838920 3.556557 -2.735496 1.661695 -1.810642 -8.591861 -10.252929 -0.000000 -0.000000 0.000000 -0.000000 -0.000000 0.000000 -0.000000 -0.000000 0.000000 0.884373 -14.423626 -7.113105 4.913299 -20.993170 -66.797782 -0.000004 -8.443172 -0.000024 28.074569 -3.736118 1.982112 -0.447742 9.542408 7.988816 1.207963 -0.209683 -1.050974 0.000000 -0.000000 0.000004 -0.532806 -3.393655 -8.479638 0.017533 0.492082 -4.080877 -0.000002 0.000000 -0.000004 -0.058927 0.059267 -7.998244 0.257320 1.868421 -15.682850 0.000004 -0.000001 0.000002 0.748106 3.956120 -12.990851 1.127540 3.780782 -33.201823 -0.000000 -0.000000 -0.000002 3.942285 12.101807 -19.349818 2.846478 1.490439 -54.150003 -0.000001 0.000002 0.000000 0.000002 0.000001 0.000000 1.117805 -1.124365 21.094887 13.056014 25.498015 49.823218 -0.000005 12.573911 -0.000044 8.996129 10.005951 7.412387 0.540174 -12.066428 -7.664109 2.477878 -2.390337 1.111619 -0.000001 0.000000 -0.000000 -0.167897 1.041601 6.642078 0.432581 -2.418592 20.278480 -0.000002 -0.000001 -0.000000 0.414558 -2.741135 10.685130 0.667007 -2.976508 25.256084 -0.000002 0.000001 0.000002 1.521965 -6.761150 14.301783 1.347907 -4.119274 36.225288 -0.000004 0.000000 0.000000 5.079043 -11.951117 24.864069 2.082786 -4.966370 45.483090 0.000001 -0.000003 -0.000004 0.000001 0.000001 -0.000000 0.000000 -0.000000 -0.000000 0.000000 -0.000000 -0.000000 0.000000 -0.000000 -0.000000 0.000000 -0.000000 -0.000000 0.000000 -0.000000 -0.000000 0.000000 -0.000000 -0.000000 0.000000 -0.000000 -0.000000 0.000000 -0.000000 -0.000000 0.000000 -0.000000 -0.000000 -0.000000 -0.000000 0.000000 -0.000000 -0.000000 0.000000 0.000000 0.000000 0.000000 
-3.665733 80.538994 -0.612980 -8.944142 0.037075 -3.853890 0.000000 0.000000 -0.000000 -12.258301 17.551375 19.739006 26.538727 1.792008 0.272553 -6.640029 2.899035 -9.193043 -0.000000 -0.000000 0.000000 -0.000000 -0.000000 0.000000 -0.000000 0.000003 -0.000000 -3.854621 9.781236 4.723375 24.250230 -8.755789 5.880496 -13.316511 -27.282023 -2.935268 0.000000 0.000002 0.000000 0.000000 0.000002 0.000000 -0.000000 -0.000000 0.000000 5.802532 1.254498 10.563135 0.240249 0.144356 -1.833516 0.244788 0.116871 -1.835633 3.566171 -2.739588 1.660528 -1.905973 -8.614428 -10.234611 0.000000 -0.000001 -0.000000 0.000000 -0.000001 -0.000000 0.000000 -0.000001 -0.000000 0.886145 -14.461925 -7.099125 4.903081 -20.960744 -66.816517 -0.000009 -8.443174 -0.000010 28.125898 -3.790527 2.004091 -0.482624 9.557589 8.069553 1.207969 -0.209702 -1.050989 0.000000 -0.000001 0.000000 -0.528662 -3.355252 -8.496136 0.017518 0.492057 -4.080920 -0.000002 0.000001 -0.000003 -0.056437 0.082838 -8.015830 0.257488 1.868938 -15.687543 0.000003 -0.000001 0.000002 0.750989 3.973031 -13.066647 1.128115 3.781681 -33.210641 0.000001 -0.000001 -0.000002 3.959082 12.113203 -19.486033 2.845086 1.489423 -54.135523 0.000001 0.000001 0.000002 -0.000001 -0.000000 0.000001 1.112552 -1.115146 21.060361 13.107381 25.511624 49.821784 -0.000007 12.666734 0.000023 8.972395 9.942146 7.431797 0.552953 -12.215784 -7.735829 2.354998 -2.052802 1.193426 0.000003 0.000001 -0.000002 -0.171846 1.131399 6.660491 0.416232 -2.373896 19.887294 -0.000003 -0.000000 -0.000000 0.402408 -2.679120 10.482951 0.643758 -2.926796 24.804699 0.000005 0.000001 0.000003 1.491655 -6.735063 13.978955 1.327621 -4.091493 35.941726 -0.000000 0.000002 0.000006 5.008186 -11.976810 24.368146 2.079908 -4.963553 45.449960 -0.000003 -0.000001 -0.000005 0.000000 -0.000000 -0.000000 -0.000000 -0.000000 0.000000 -0.000000 -0.000000 0.000000 -0.000000 -0.000000 0.000000 -0.000000 -0.000000 0.000000 -0.000000 -0.000000 0.000000 -0.000000 -0.000000 0.000000 -0.000000 -0.000000 0.000000 -0.000000 -0.000000 0.000000 -0.000000 -0.000000 0.000000 0.000000 -0.000000 -0.000000 0.000000 -0.000000 -0.000000 0.000000 0.000000 -0.000000 
-3.662164 80.530380 -0.603824 -8.940374 0.027006 -3.855156 -0.000001 -0.000000 0.000000 -12.291342 17.551105 19.749133 26.612664 1.802290 0.271074 -6.684590 2.898941 -9.175124 0.000000 -0.000000 0.000000 0.000000 -0.000000 0.000000 -0.000000 -0.000001 -0.000001 -3.882611 9.778646 4.728116 24.311495 -8.767527 5.877643 -13.347168 -27.281358 -2.923379 0.000000 0.000000 0.000000 0.000000 0.000000 0.000000 -0.000000 0.000000 0.000000 5.814916 1.253454 10.554077 0.247615 0.144391 -1.822125 0.252111 0.116905 -1.824225 3.564621 -2.743922 1.652795 -2.028652 -8.645558 -10.231358 -0.000000 0.000000 -0.000000 -0.000000 0.000000 -0.000000 -0.000000 0.000000 -0.000000 0.880151 -14.533434 -7.168494 4.927612 -20.940305 -66.752655 -0.000011 -8.443157 0.000005 28.052504 -3.776607 2.020543 -0.413350 9.617297 7.973033 1.207962 -0.209672 -1.050989 0.000000 -0.000001 0.000001 -0.525068 -3.313259 -8.529374 0.017553 0.492230 -4.082287 -0.000003 0.000001 -0.000003 -0.053716 0.108789 -8.029313 0.257254 1.868146 -15.680610 0.000003 0.000001 -0.000005 0.752865 3.992545 -13.104509 1.126340 3.778978 -33.183689 0.000001 -0.000000 -0.000002 3.962480 12.128424 -19.538859 2.838481 1.484650 -54.067760 0.000003 -0.000002 0.000001 -0.000001 0.000002 0.000000 1.106763 -1.102949 21.007411 13.108205 25.514727 49.851604 0.000014 12.724245 -0.000030 8.994193 9.901009 7.455474 0.560797 -12.301603 -7.775217 2.290884 -1.878968 1.234829 -0.000003 0.000003 -0.000006 -0.172495 1.180113 6.572166 0.423878 -2.394913 20.071278 -0.000002 0.000004 0.000004 0.390904 -2.636082 10.213237 0.641299 -2.921476 24.756635 -0.000001 -0.000001 -0.000000 1.457312 -6.710588 13.615223 1.319469 -4.080282 35.827668 0.000003 0.000001 0.000002 4.922089 -11.988950 23.836331 2.075735 -4.959453 45.401610 -0.000001 0.000001 -0.000001 0.000001 0.000001 -0.000001 0.000000 0.000000 -0.000000 0.000000 0.000000 -0.000000 0.000000 0.000000 -0.000000 0.000000 0.000000 -0.000000 0.000000 0.000000 -0.000000 0.000000 0.000000 -0.000000 0.000000 0.000000 -0.000000 0.000000 0.000000 -0.000000 0.000000 0.000000 -0.000000 -0.000000 -0.000000 0.000000 -0.000000 -0.000000 0.000000 -0.000001 -0.000000 0.000000 
-3.658085 80.524391 -0.593194 -8.941594 0.040035 -3.845018 -0.000000 0.000000 -0.000000 -12.294847 17.544681 19.739921 26.644822 1.799335 0.271863 -6.708818 2.899922 -9.179253 -0.000000 -0.000000 0.000000 -0.000000 -0.000000 0.000000 -0.000000 0.000001 -0.000000 -3.893204 9.772996 4.719309 24.362465 -8.814482 5.883078 -13.374612 -27.281575 -2.909336 -0.000000 0.000002 0.000000 -0.000000 0.000002 0.000000 -0.000001 -0.000000 0.000000 5.839385 1.236225 10.532030 0.256417 0.144412 -1.810570 0.260775 0.116925 -1.812632 3.552593 -2.742382 1.641336 -2.144361 -8.663733 -10.200663 -0.000000 0.000000 0.000000 -0.000000 0.000000 0.000000 -0.000000 0.000000 0.000000 0.882221 -14.510766 -7.149106 4.897177 -20.986381 -66.785460 -0.000001 -8.441647 -0.000025 28.032809 -3.728893 2.020986 -0.344095 9.605919 7.835593 1.207955 -0.209686 -1.050984 0.000000 -0.000000 -0.000002 -0.522288 -3.275660 -8.569627 0.017588 0.492753 -4.086663 -0.000002 -0.000000 -0.000004 -0.051267 0.132816 -8.040440 0.257370 1.868517 -15.683841 0.000004 -0.000001 0.000000 0.754046 4.011435 -13.114880 1.125586 3.777802 -33.172163 0.000000 0.000000 -0.000000 3.958166 12.147684 -19.530991 2.835308 1.482332 -54.035010 0.000001 0.000001 -0.000002 0.000004 0.000000 -0.000002 1.102168 -1.086577 20.956260 13.060808 25.506445 49.905590 -0.000003 12.719104 -0.000030 9.036949 9.915474 7.458698 0.596426 -12.368572 -7.748276 2.262676 -1.801598 1.253974 0.000001 0.000000 -0.000002 -0.171415 1.192350 6.482592 0.438355 -2.434103 20.414624 -0.000005 0.000004 0.000004 0.382470 -2.612184 9.963716 0.646832 -2.933451 24.865114 -0.000001 -0.000003 0.000001 1.423799 -6.689217 13.270828 1.316406 -4.076033 35.784246 -0.000000 0.000000 0.000004 4.831026 -11.990033 23.329179 2.071064 -4.954863 45.347593 -0.000001 -0.000002 -0.000002 0.000001 -0.000000 0.000001 -0.000000 0.000000 -0.000000 -0.000000 0.000000 -0.000000 -0.000000 0.000000 -0.000000 -0.000000 0.000000 -0.000000 -0.000000 0.000000 -0.000000 -0.000000 0.000000 -0.000000 -0.000000 0.000000 -0.000000 -0.000000 0.000000 -0.000000 -0.000000 0.000000 -0.000000 0.000000 0.000000 0.000000 0.000000 0.000000 0.000000 -0.000000 0.000000 -0.000000 
